<svg version="1" xmlns="http://www.w3.org/2000/svg" width="306.667" height="306.667" viewBox="0 0 230.000000 230.000000"><path d="M95.4 1.5C76.9 4.8 60.3 12 46 22.8c-2.4 1.8-4.5 3-4.6 2.5-.1-.4-.5-2-.8-3.6-.5-2-1.2-2.7-2.9-2.7-4.7 0-11.9 11.3-13.3 20.9-.4 2.8-2.3 6.9-5.1 11C.3 79.1-5.2 116.6 4.9 149c1.8 5.6 1.8 6.6.5 9.1-.8 1.5-1.4 4.1-1.4 5.6 0 5.3 12.2 23.9 23.1 35.5l6.4 6.8 3.9-1.1c3.6-1 4.2-.8 8 2 12.4 9.2 27.6 16.4 43.3 20.3 7.4 1.9 11.5 2.2 26.3 2.2s18.9-.3 26.3-2.2c15.7-3.9 30.9-11.1 43.3-20.3 3.8-2.8 4.4-3 8-2l3.9 1.1 6.4-6.8c10.9-11.6 23.1-30.2 23.1-35.5 0-1.5-.6-4.1-1.4-5.6-1.3-2.5-1.3-3.5.5-9.1 8.5-27.3 5.8-59.9-6.8-85-6.3-12.4-11.2-19-22.2-30.1-18.4-18.3-37-28.1-61.8-32.4-10.3-1.8-29.1-1.8-38.9 0zm38.1 6.6c40.9 6.7 75.9 38.9 86.4 79.4 4.5 17.3 4.5 37.7 0 55-2.6 10-5.9 17.7-7.3 17.2-5.5-2.1-24.7-7.8-31.1-9.3-4.4-1-8.2-1.9-8.4-2.1-.2-.1.8-2.9 2.2-6 4.1-9.1 5.7-16.9 5.7-27.3 0-11.6-1.7-18.9-7.1-29.8-4.4-9.1-13.9-20.1-21.3-24.8-3.8-2.4-4.1-3-3.8-6.1.4-3.2.6-3.4 3.6-2.7 1.7.3 3.5 1.3 3.9 2 1.4 2.4 2.6 1.6 4.9-3.2 1.7-3.3 2.7-4.4 4-4.1 1 .3 2 .1 2.3-.4.6-.9-11.4-7.4-12.2-6.6-.2.3.1 1.4.8 2.5 1.7 2.7-.2 7.2-3.1 7.2-2.5 0-6-3.4-6-5.8 0-2.9 5.7-14 7.9-15.1 5.2-2.8 10.7.7 9.8 6.4-.4 2.5-.1 3.5 1 3.9.9.4 1.7.5 1.7.4 1.2-2.2 2.6-6.3 2.6-7.9 0-1.5-.5-1.9-1.9-1.4-1.2.3-2.1 0-2.4-1-1-2.5-6.9-5.5-10.9-5.5-6.1 0-13.8 8.6-13.8 15.5 0 2.9-.3 3-3.3 1-2.3-1.5-2.3-1.6-1.1-10.7.7-5.1 1.3-9.4 1.3-9.4.1-.1 1.1-.4 2.3-.8 3.3-.8 1.2-2.2-4.4-3-3.9-.4-4.8-.3-4.8.9 0 .8.6 1.5 1.4 1.5.8 0 1.6.6 1.9 1.3.6 1.6-.4 11.7-1.2 11.6-.3 0-3.3-3.8-6.6-8.4-5.3-7.4-6.4-8.5-9.8-9-3.5-.6-6.6.2-4.2 1.2 3.4 1.2 3.5 1.8 2.5 10.4-1.4 11.3-1.8 12.9-3.5 12.9-.8 0-1.5.7-1.5 1.5 0 1.1 1.1 1.5 4 1.5 2.2 0 4 .2 4 .5 0 .2-.7 2-1.6 3.8-1.6 3.3-1.9 3.4-8.8 4-3.9.3-9.7 1.5-12.8 2.6-5.6 1.9-5.7 1.9-8.2 0-1.3-1-3.1-1.6-4-1.3-3.1 1.2-1.5-.6 2.9-3.2C88 46 90 44.5 90 44c0-.4-.7-2.4-1.5-4.4-1.8-4.3-3.5-3.9-3.5.9 0 2.4-.7 3.9-2.6 5.4-1.5 1.2-3.2 2.1-3.8 2.1-.6 0-3.3-4.1-6-9.2-4.2-7.8-4.7-9.4-3.7-11.1 2.1-3.2.5-3-6.4.8-6.6 3.7-7.4 4.9-3.3 5 1.6 0 3.2 1.7 5.9 6.5 2 3.6 3.6 6.6 3.4 6.8-.2.3-17.9-9.3-23.1-12.5-1.9-1.2-1.9-1.2.1-2.8 1.1-.9 5.7-4.1 10.3-7.2C78.5 9.2 105.5 3.6 133.5 8.1zM37.9 20.3c-.2.1-1.3.9-2.4 1.7-1.9 1.4-1.9 1.4-.6-.3.7-.9 1.8-1.7 2.4-1.7.6 0 .8.1.6.3zM124 36.6c-1.5.7-3.1 1.7-3.5 2.3-.5.9-1 .9-2.1 0-1.5-1.2-1.8-5.1-.8-11.1l.7-3.8 4.2 5.7 4.3 5.8-2.8 1.1zm-86 2.3c-2.8 5.6-3.5 5.2-.8-.4 1.2-2.4 2.3-4.3 2.6-4.1.2.2-.6 2.2-1.8 4.5zm-4.9 1.9c-.5 1-1.8 2.5-2.7 3.3-1.1.9-.9.2.6-1.9 2.6-3.5 3.6-4.2 2.1-1.4zm9.2 1.9c-.7.2-1.9.2-2.5 0-.7-.3-.2-.5 1.2-.5s1.9.2 1.3.5zm4 3c3.8.9 6.4 1.9 5.7 2.1-.7.3-2.9-.1-5-.8-2.7-.9-4.2-.9-5.8-.1-3 1.6-14.3 15.9-13.1 16.6.5.4 1.6.1 2.4-.5 1.2-1 3.1.1 10 5.5 7.3 5.9 8.4 7.1 7.9 9.1-.9 3.6 0 3 5-3.2 4.5-5.5 5.3-8.5 1.7-6.2-1.5.9-2.5.6-5.5-1.7-2-1.5-3.6-3.1-3.6-3.5 0-1.8 3.4-1.9 5.8-.2 1.5 1 5 2.7 7.7 3.7 2.8 1 5.1 1.9 5.3 2 .1.1-.3 1.5-.8 3.2-.8 2.3-2.2 3.3-6 4.7-6.6 2.4-7.4 3.5-6.6 9.8.4 3.4.1 8-.9 12.6-3.1 15-1.6 30.5 4.2 43.5 1.4 3.1 2.4 5.9 2.2 6-.2.2-4 1.1-8.4 2.1-6.4 1.5-25.6 7.2-31.1 9.3-2.8 1-8.9-19.7-10.3-35-2.3-23.9 3.6-47.9 16.8-68.5 8.3-12.9 9.7-13.5 22.4-10.5zM65 50c.8.5 1.1 1 .5 1-.5 0-1.7-.5-2.5-1s-1-1-.5-1c.6 0 1.7.5 2.5 1zm55.1.5c1.1-.6 1.1-.5.2.5-1.2 1.4-3.3.6-3.3-1.3 0-.8.3-.7.9.2.5.8 1.4 1 2.2.6zm-69.8.2c-2.2.8-1.4 5.6 1.5 8.7l2.7 3.1-2.8-2.5c-1.6-1.4-3.3-3.3-3.8-4.3-1.3-2.4-.2-5.7 1.9-5.6 1.1 0 1.2.3.5.6zM62 51c.8.5 1.1 1 .5 1-.5 0-1.7-.5-2.5-1s-1-1-.5-1c.6 0 1.7.5 2.5 1zm11.6 2.5c6.3 2.8 6.8 2.9 6 1.6-.4-.5.4-.7 1.6-.3l2.2.5-2.2.8c-1.5.6-4 0-8.4-2.1-3.5-1.6-6-2.9-5.6-2.9.4-.1 3.3 1 6.4 2.4zm-28.6 2c1 1.2 1 2.1.1 4.1L44 62.1l-3.5-2.8c-3.9-3.1-4.4-4.7-1.8-6.2 1.9-1 4.2-.2 6.3 2.4zm9.9-2.1c.9 1.1.6 1.5-1.6 1.9-3.3.6-3.8.3-3-1.8.8-1.9 3.1-2 4.6-.1zM69 54.6c0 .2-.9 0-2-.6s-2-1.3-2-1.6c0-.2.9 0 2 .6s2 1.3 2 1.6zm12.7-2c-.3.3-1.2.4-1.9.1-.8-.3-.5-.6.6-.6 1.1-.1 1.7.2 1.3.5zm4.3 1.5c0 .6-.4.7-1 .4-.5-.3-1-1.1-1-1.6 0-.6.5-.7 1-.4.6.3 1 1.1 1 1.6zm26-.1c-.6 1.1-2.1 2-3.5 2-1.3 0-4.6.5-7.3 1.1-4.6 1.1-11.2.5-9.9-.8 1.3-1.2 13.4-4.2 17.5-4.2 4-.1 4.2 0 3.2 1.9zm-48.5 0c.3.6-.1.7-.9.4-1.8-.7-2.1-1.4-.7-1.4.6 0 1.3.4 1.6 1zm-3 1.2c2.1.9 3.5 2.8 2.1 2.8-1.6 0-5.6-2.1-5.6-3 0-1.3.3-1.3 3.5.2zm29 2.8c2.4.6 1.8.8-3 .9-4.2 0-5.6-.2-4.5-.9 1.7-1.1 3.2-1.1 7.5 0zm31 1.8c3.3 1.6 6.7 3.7 7.5 4.8 1.4 1.8 1.4 1.8-.5.3-2.7-2.3-8.2-5-13-6.5-2.2-.7-3.1-1.3-2-1.3 1.1-.1 4.7 1.2 8 2.7zM69 59c0 1.3-1.1 1.3-3 0-1.2-.8-1.1-1 .8-1 1.2 0 2.2.4 2.2 1zm-7.4 1.6c-.4.9-.1 2.4.6 3.3.6.9.1.6-1.3-.7-2-1.9-2.2-2.4-.9-3.2 2.1-1.3 2.3-1.2 1.6.6zm11.4 0c0 .2-.7.4-1.5.4s-1.5-.4-1.5-1c0-.5.7-.7 1.5-.4.8.4 1.5.8 1.5 1zm26.3 1.9c.6 1.1 2.6 4.3 4.5 7.2l3.4 5.2-2.2 3.6-2.2 3.6-2.4-3.2c-1.3-1.8-2.4-3.7-2.4-4.2s-.9-.7-2-.4c-1.3.3-1.8.1-1.3-.6.4-.6 0-.8-1-.4-.9.3-2.1-.1-2.9-1.1-1.2-1.6-1.1-1.6.7-.2 2 1.4 2 1.4.2-.7l-1.9-2.1-5.4 2.8c-3 1.5-5.4 2.4-5.4 2 0-1.1 3.3-3.7 5.6-4.4 2.5-.8 6-4.3 5.1-5.2-.3-.4-3.2-1-6.4-1.3-5.7-.7-5.7-.7-2.2-1.4 2.1-.4 4.8-.3 6.3.3 3.7 1.4 5.3 1.3 3.3-.3-1.5-1-1-1.2 2.9-1.2 3.6 0 4.9.4 5.7 2zm62.3 9.8c10.9 11.8 16.4 26 16.4 42.7 0 10.1-2.3 20.7-6 28-2.2 4.4-3.2 5.2-5.2 4.5-1.1-.4-.7-1.9 1.7-7 1.8-3.6 3.7-9 4.4-12.1 1.6-7.1 1.6-19.9.1-26.7-3.1-12.9-11.8-26.4-21.9-33.7-5.1-3.7-5.8-4.6-4.8-6.1 1-1.6 1.4-1.5 5.5 1.4 2.4 1.8 6.8 5.8 9.8 9zm-89.1-9.2c2.2 1 2.9 1.6 1.5 1.3-2.8-.7-8-3.3-6.5-3.3.6 0 2.8.9 5 2zm63.8.6c-.7.2-1.3 1-1.3 1.7s-1.3 2.5-3 4.1c-1.6 1.6-3 2.4-3 1.7 0-.6 1.1-1.9 2.5-2.8 1.4-.9 2.5-2.5 2.5-3.5 0-1.2.7-1.9 1.8-1.8 1 0 1.2.3.5.6zM69 66.5c3.3 1.9 2.1 1.9-2.1 0-1.9-.8-2.7-1.4-1.9-1.4.8 0 2.6.6 4 1.4zm41.5 3.4c.3.6-1.5-.2-4-1.5-2.5-1.4-4.5-2.8-4.5-3 0-.7 7.8 3.5 8.5 4.5zm8.6-1.9c1.8 0 5.9 2.8 5.9 4.1 0 .5-1.2 1.5-2.7 2.2-1.6.6-3.1 1.6-3.4 2.1-1 1.3-4.2-.2-3.3-1.5.4-.7-.1-1.8-1.1-2.6-1.8-1.2-1.8-1.3.2-1.3 2.5 0 3.9-1.5 2.3-2.5-.5-.3-1-.2-1 .3s-1.1.7-2.5.4c-2.5-.4-2.5-.5-.9-2.3 1.5-1.7 1.9-1.8 3.4-.4.9.8 2.3 1.5 3.1 1.5zm-51.2 3c-.8.6-1 2.2-.6 5.4.7 4.8.6 5-3.4 6l-2.7.6 2.6-6.9c1.8-4.9 3-6.7 4-6.4 1 .5 1.1.8.1 1.3zm68.2 13c2.4 1.1 3.6 2 2.6 2-1.4 0-1.7.5-1.2 2 .8 2.5-1.5 3.6-4.5 2-1.5-.8-1.9-1.7-1.5-3.1 1.4-4.4-8.2-1.2-15.9 5.3-3.2 2.7-4.5 3.4-3.7 2 2.9-5.5 13.3-10.7 19.5-9.8 4 .6 4 .5 1.6-.9-3.6-2.1-1.9-1.8 3.1.5zm7.9 3.5c1.9 2.2.8 2.5-1.2.3-1-1-1.4-1.8-.9-1.8.5 0 1.4.7 2.1 1.5zm-1 2.1c0 .2-.9 0-2-.6s-2-1.3-2-1.6c0-.2.9 0 2 .6s2 1.3 2 1.6zm15 .9c5.5 2.9 4.5 3.3-1.1.4-2.3-1.1-4.6-1.8-5.2-1.6-.7.2-2.1.1-3.2-.4-1.6-.6-1.2-.8 1.5-.8 1.9 0 5.5 1.1 8 2.4zm-88.4 0c-1.4 1-4.2 1.4-9 1.3l-7.1-.1 7.7-.6c4.2-.3 8-.9 8.4-1.4.4-.4 1-.7 1.3-.7.3 0-.3.7-1.3 1.5zm30.4 2.9c0 .2-1.8.6-3.9.8-2.2.2-3.7 0-3.5-.4.5-.8 7.4-1.1 7.4-.4zm67 2.6c0 .6-.9.2-2-.7-1.1-1-2-1.9-2-2.1 0-.1.9.2 2 .8 1.1.6 2 1.5 2 2zm-61.2 3.2c.7.7 1.2 1.7 1.2 2.2 0 .6-.5.3-1.1-.6-.6-1.1-1.6-1.5-2.6-1.1-1.1.4-1.4.3-.9-.5.9-1.5 1.9-1.5 3.4 0zm-3.7 6.5c-.4 2.8-.6 3.2-.9 1.5-.3-2.2.3-5.2 1.1-5.2.1 0 .1 1.7-.2 3.7zm3.9 5.6c.3.2 1.4.9 2.5 1.5s1.4 1.2.8 1.2c-2.8 0-5.3-3.9-5.2-8.3l.2-4.2.6 4.7c.4 2.6.9 4.9 1.1 5.1zm17.7-3c-.7.7-2.4 2.1-3.7 3.2-2.3 1.8-2.2 1.7.2-1.1 2.3-2.4 2.6-3.3 1.5-4.3-1-1.1-.8-1.1 1.1-.2 1.8 1 2 1.4.9 2.4zm-68 9.2c.4 8.2 2.3 16 5.7 22.9 2.5 5.1 2.9 6.7 1.8 7.1-2 .7-3-.1-5.2-4.5-3.5-6.9-6-18-6-27 0-8.3 0-8.4 1.7-6 1 1.4 1.9 4.7 2 7.5zm58.9-6c-1.1.8-2.5 1.5-3 1.5-.6-.1 0-.7 1.4-1.5 3.2-1.9 4-1.8 1.6 0zm-17.1 1.4c-.3.6-1.4 1-2.3 1-1.5-.1-1.5-.2.1-.6.9-.2 1.7-.9 1.7-1.5s.3-.9.6-.5c.3.3.3 1-.1 1.6zm8.4 2.9c1.4 1.1 1.4 1.1-.2.6-1-.4-2.2-1.5-2.7-2.5-1.4-2.5-1.2-3.8.2-1.4.6 1.1 1.9 2.6 2.7 3.3zM95.5 135c.4.6-.1.7-1 .3-1-.3-2.1 0-2.6.8-.7 1.1-.9 1.1-.9-.4 0-1.8 3.4-2.4 4.5-.7zm3.5 24.1c0 1.6-.4 1.9-2.2 1.3-2.1-.6-2.1-.5-1.5 8.3.4 5 .9 9.8 1.3 10.7.4 1.1.1 1.6-1.4 1.6-1.9 0-2-.8-2.4-9.9-.3-9.1-1.4-13.5-2.5-10.4-.7 2-2.3 1.5-2.3-.6 0-2 .4-2.1 9.3-2.9 1.1-.1 1.7.5 1.7 1.9zm10.9-.7c.8.9 1.1 4.8.9 11.2l-.3 9.9-2.8.3c-4.9.6-5.7-1.1-5.7-11.2 0-5.8.4-9.6 1.2-10.4 1.6-1.6 5.3-1.5 6.7.2zm8.1.5c-1.3 2.6-1.3 17.8 0 18.6.6.4 1.8.1 2.6-.6 1.3-1 1.5-3.1 1.2-10.6-.2-7.8-.1-9.3 1.2-9.3s1.4 1.7 1.2 10.2c-.4 10.9-1.1 12.8-4.7 12.8s-4.3-1.9-4.7-12.8c-.3-10.1-.3-10.2 2-10.2 1.9 0 2.1.3 1.2 1.9zm19.2.3c.5.7.6 3.1.3 5.3-.6 5.2-.6 12.5.1 14.8.5 1.4.1 1.8-1.3 1.5-1.5-.3-1.7-1.1-1.5-4.9.3-3.5 0-4.8-1.3-5.2-2-.8-2.8 1.2-2.3 5.8.4 3.1.1 3.5-1.9 3.5s-2.2-.3-1.5-3.3c.4-1.7.7-7 .7-11.5v-8.4l3.9.5c2.1.3 4.3 1.1 4.8 1.9zm-61.5 1.2c-.3.8.1 5.6.8 10.8 1.8 11.4 1.8 10.8.1 10.8-.7 0-2.4-2.6-3.6-5.8-2.7-6.6-4.4-9.1-3.6-5 .3 1.6.8 4 1.1 5.5.3 1.6.8 3.6 1.1 4.5.4 1.3 0 1.8-1.6 1.8-1.5 0-2-.5-1.7-1.4.6-1.6-1.5-17.6-2.6-19.3-.4-.6 0-1.4.9-1.7 1.1-.4 2.4 1.2 4.9 6.7 3.4 7.2 3.4 7.2 2.8 2.7-.3-2.5-1-5.6-1.5-6.9-.6-1.7-.5-2.7.4-3.3 2-1.2 3.1-1 2.5.6zm83.5.8c.5.7.6 2.9.3 4.8s-.7 5.8-.9 8.6c-.2 2.8-.6 5.6-1 6.3-.4.6-2.8 1.1-5.3 1.1-3.9 0-4.4-.2-3.8-1.8.4-.9 1.3-6.1 1.9-11.5l1-9.9 3.5.6c1.9.3 3.8 1.1 4.3 1.8zM62 163.6c0 1-.6 1.3-1.7 1-2.8-.9-4.1.6-3.6 4.1.4 2.7 1 3.3 2.9 3.3 2.9 0 3.2 1.6.4 2.3-1.7.4-2 1.1-1.5 3.4 1.3 5.6 1.3 5.7 3.9 4 2.2-1.5 2.4-1.5 2.9.3.4 1.7-.1 2.1-3.4 2.6-4.1.7-5.6.4-5.1-1s-2.9-18-3.9-19.3c-.8-.8.1-1.4 3.3-2.1 4.8-1 5.8-.7 5.8 1.4zm107.7-1.8c.7.5 1.3 4.7 1.5 12 .3 11 .3 11.2-1.9 11.2-2.7 0-2.7-.3-1-3 1-1.7.9-2.2-.3-3-2.2-1.4-3.5-.7-3.8 2.3-.3 2.4-2 3.5-3.4 2.2-.3-.3 1-4.5 2.8-9.3 1.8-4.8 3.3-9.7 3.4-11 0-2.3.7-2.7 2.7-1.4zM49 166c0 1.7-.5 1.9-2.5 1.4-2.7-.7-2.8-.3-1.9 4.5.5 2.4 1.1 3 2.4 2.6 1-.3 2.1-.1 2.5.5.4.7-.2 1.4-1.4 1.7-1.5.4-2 1.1-1.6 2.4.3 1.1.8 2.8 1.1 3.9.6 2.2 3 2.7 3.7.7.4-.9.7-.9 1.8 0 1.7 1.7.3 3-4.3 3.8-3.2.6-3.7.5-3.6-1.1.2-2.6-3.2-16.7-4.3-17.9-1.5-1.6-1-2.4 2.4-3.4 4.9-1.4 5.7-1.3 5.7.9zm134.1 5.7l.1 7.8 1.3-4c.8-2.2 1.4-5.4 1.4-7.2.1-2.6.4-3 2.1-2.6 2.2.6 2.5 1.4 1.1 2.8-.4.6-1.8 5.2-3.1 10.2-1.5 6.2-2.7 9.3-3.6 9.3-1.1 0-1.4-1.8-1.5-7.8 0-8.4-1.3-7.5-2.5 1.8-.7 5.2-1 5.6-3.3 4.1-1.1-.7-1.2-1.3-.4-2.3 1.5-1.7 5.2-16.9 4.6-18.5-.3-.8.3-1.3 1.6-1.3 1.9 0 2.1.6 2.2 7.7zM37 169.6c0 1.1-.6 1.3-2.2.9-1.5-.5-2-.4-1.6.6.3.8 1.5 4.5 2.8 8.4 1.2 3.8 2.7 7.5 3.2 8.2.5.7.7 1.7.3 2.3-1 1.6-3.5 1.2-3.5-.7 0-2.7-5.1-17.3-6-17.3-.5 0-1 .5-1.2 1.2-.5 1.4-2.8.1-2.8-1.6 0-1.3 8.9-4.6 10.3-3.9.4.2.7 1.1.7 1.9zm164.3 1.6c.8 1.2.3 4-1.9 10.5l-2.9 8.8-3.8-.1c-4.5-.2-6.5-1.7-5-3.6 1.2-1.5 5.5-14.3 5.9-17.3.1-1.1.3-2.1.3-2.3.3-.7 6.6 2.6 7.4 4zM143.1 196c10.2 1 36 4.9 36.8 5.6.7.7-14.6 9.8-21.8 13-26.9 11.6-59.3 11.6-86.2 0-7.2-3.2-22.5-12.3-21.8-13 .7-.6 26.1-4.6 34.9-5.5 12.2-1.2 46-1.3 58.1-.1z"/><path d="M93 16.2c-5.8 1.3-7 2.5-3.7 3.7 2.1.8 2.7 2 3.7 6.8.6 3.2 1.6 7.6 2.1 9.8.6 3.1.5 4.2-.6 5.1-1.8 1.4-2 3.5-.2 2.9.6-.2 3.8-.9 7-1.5 3.1-.6 5.7-1.6 5.7-2.1s-.7-.9-1.5-.9c-2 0-3.1-2.7-5.1-12.9-1.5-7.8-1.5-8.6 0-9.6 3.5-2.6.8-3.1-7.4-1.3zM175.8 39.3c-3.3 2.7-3.8 5.2-.8 4.3 1.1-.3 2.8-.8 3.8-1.1.9-.3 2.5 0 3.5.7 1.7 1.2 1.2 1.9-5.7 8.7-6.9 6.6-7.8 7.2-10.6 6.6-1.6-.4-3-.3-3 .2 0 1 10.3 11.3 11.3 11.3.4 0 .4-1.2.1-2.6-.6-2.2.3-3.6 6.7-10 5.6-5.6 7.6-7.1 8.6-6.2 1.6 1.3 1.7 5 .1 6.6-.9.9-.9 1.5 0 2.4 1 1 1.9.6 4.4-1.9l3.1-3.1-8.4-9.1c-4.6-5-8.8-9.1-9.4-9.1-.5.1-2.2 1.1-3.7 2.3zM189.4 67.5c-8.2 3.6-10.8 12.7-6 20.9 3 5.1 6.5 7.1 12.1 7 7.8-.2 14.5-6.5 14.5-13.5-.1-5.1-3.4-11.6-7.2-13.9-3.8-2.3-8.9-2.5-13.4-.5zM205 74c4.2 4.2 1.6 9.6-6.4 13-7 3-9.1 3.2-12 .9-5.4-4.3-2.4-10.2 7-13.9 6.3-2.5 8.9-2.5 11.4 0zM213 99c0 1.9-.7 2-11 2-8.9 0-11.2-.3-11.6-1.5-1.3-3.2-2.4-1.3-2.4 4 0 4.2.3 5.5 1.5 5.5.8 0 1.5-.7 1.5-1.5 0-2.1 4.5-3.7 9.9-3.3l4.5.3-8.2 8.6c-4.5 4.8-8.2 9.1-8.2 9.6s5 .7 11.8.5c10-.4 12-.2 13.1 1.2 2.3 2.8 3.2 1.8 2.9-3.1-.3-4.8-2.2-6.9-3.1-3.3-.4 1.7-1.3 2-6.8 2h-6.4l7.8-7.8c6.8-6.9 7.7-8.2 7.7-11.5 0-2.6-.4-3.7-1.5-3.7-.8 0-1.5.9-1.5 2zM199.5 132c-.3.5-1.2.7-2 .3-1.1-.4-1.5.2-1.5 2.3 0 1.6-.4 2.4-.8 1.8-.4-.6-1.7-1.3-2.9-1.6-1.7-.5-2.3-.1-2.5 1.6-.5 2.9 2.3 8.4 4.6 9 1.3.3 1.7 1.1 1.3 2.5-.3 1.2-.2 2.1.3 2.1.4 0 1-.9 1.3-2.1.5-1.7.9-1.9 2.6-.9 1.5.8 2.1.8 2.1 0 0-.6 1.3-1.6 3-2.1 1.6-.6 2.7-1.5 2.4-2-.3-.6-.1-1.6.5-2.3.9-1.1.6-1.5-1.4-2-1.4-.4-3.1-.4-3.6 0-.7.4-.6-.3.1-1.7 1-1.7 1-2.4.1-2.7-.6-.2-1.1-1-1.1-1.8 0-1.6-1.6-1.9-2.5-.4zM23 71.5c-1.4 5-.7 6.9 1.4 4 1.3-1.8 1.6-1.8 9.2 1 8.9 3.2 11.4 4.9 11.4 7.9S42.3 91 40 91c-2.2 0-16-4.9-17.5-6.2-.5-.5-1-1.5-1-2.3 0-3.6-2.1-1.1-4.2 5.1-2.5 7.3-2.3 8.7.5 6 1.8-1.5 2.4-1.4 10.6 1.5 8.5 3.1 8.8 3.2 12.2 1.5 3.6-1.7 7.3-7.9 7.4-12.2 0-3.9-3.7-7.1-11.7-10-9-3.2-10.4-4-9.6-6 .3-.8-.1-1.4-1-1.4s-1.9 1.8-2.7 4.5zM29.2 102c-1.2 1.2-2.2 2.6-2.2 3.3 0 .6-.7.1-1.6-1.1-2.1-3.1-7.8-3.1-9.8 0-1.9 3.2-2.9 21.8-1.1 21.8.7 0 1.5-1 1.8-2.1.5-1.7 1.1-2 2.9-1.5 1.3.3 6.1.6 10.6.6 7.5 0 8.4.2 8.9 2 1.1 4.1 2 1.7 2.6-6.6.8-10.6.1-13.9-3.1-16.4-3.2-2.6-6.3-2.5-9 0zm8.8 7.4c.6.8 1 2.5.8 3.8-.3 2-1 2.3-5.1 2.6-5.4.4-6.8-1.2-4.9-5.4.9-1.8 1.9-2.4 4.6-2.4 1.8 0 3.9.7 4.6 1.4zm-13 1.5c1.8 3.4 1.2 4.1-4 4.1-5.1 0-5.8-.7-4.4-4.4.9-2.4 7.1-2.1 8.4.3zM28 132.4c0 .8-.5 1.6-1.1 1.8-.9.3-.8 1.1.1 2.8 1.1 2.1 1.1 2.3-.1 1.4-1-.8-2-.7-3.7.1-1.6.9-2 1.5-1.2 2 .6.4.9 1.3.6 2.1-.3.8.1 1.4.9 1.4s2.3.8 3.4 1.9c1.2 1.2 2.3 1.6 3.2 1 2.2-1.4 2.9-1.1 2.9 1.1 0 1.1.5 2 1 2 .6 0 .8-1.1.4-2.5-.5-2-.2-2.5 1.2-2.5 2.2-.1 5.1-5.5 4.6-8.6-.2-1.7-.8-2.1-2.5-1.6-1.2.3-2.5 1-2.9 1.6-.4.6-.8-.2-.8-1.8 0-2.1-.4-2.7-1.5-2.3-.8.4-1.7.2-2-.3-.9-1.5-2.5-1.2-2.5.4zM66.1 79.6c0 1.1.3 1.4.6.6.3-.7.2-1.6-.1-1.9-.3-.4-.6.2-.5 1.3zM134.1 85.9c-.8.5-1.1 1.6-.8 2.5.9 2.4 2.4 1.9 2.9-.9.6-2.7.1-3-2.1-1.6zM104.3 160.6c-.8 2.1.5 15.6 1.6 16.7 2 2 3.1-.7 3.1-7.8 0-4-.3-8-.6-8.9-.8-2.1-3.3-2.1-4.1 0zM131.6 161.6c-1.3 3.4-.7 6.4 1.4 6.4 1.7 0 2-.7 2-4 0-4.1-2.1-5.7-3.4-2.4zM153.6 164.2c-1 3.8-.7 4.8 1.4 4.8 1.6 0 2-.7 2-3.5 0-4-2.4-4.9-3.4-1.3zM152.7 172.7c-.4.3-.7 2.2-.7 4 0 2.7.4 3.4 1.8 3.1 2.2-.4 3.1-7.8.9-7.8-.7 0-1.7.3-2 .7zM167.2 169.9c-1.6 5-1.5 6.1.3 6.1 1.1 0 1.5-1.2 1.5-5 0-2.8-.2-5-.3-5-.2 0-.9 1.7-1.5 3.9zM193.5 179.1c-2 5.9-2.4 8.4-1.6 9.2.7.7 1.4.8 2.1.1 1.4-1.4 6.1-15.5 5.4-16.5-1.5-2.6-3.5-.2-5.9 7.2zM88.5 208v7h3.3c2.2 0 3.2-.5 3.2-1.6s-.6-1.4-2-.9c-1.6.5-2 .2-2-1.4 0-1.2.7-2.1 1.5-2.1s1.5-.5 1.5-1c0-.6-.7-1-1.5-1s-1.5-.9-1.5-2.1c0-1.6.4-1.9 2-1.4 1.4.5 2 .2 2-.9s-1-1.6-3.2-1.6h-3.3v7zM115.8 201.7c-.2.5-.2 3.6 0 7 .3 4.8.7 6.3 1.9 6.3 1 0 1.3-.6.9-1.6-.3-.9-.6-4-.6-7 0-4.7-1.1-7-2.2-4.7zM120.4 202.3c-1.1 3 0 7.2 1.9 7.1 1-.1 1.7.5 1.7 1.7 0 2.1-1.6 2.6-2.3.6-.2-.6-.8-.9-1.2-.5-1.5 1.4.5 3.9 2.7 3.6 2.1-.3 2.3-.8 2.3-6.8s-.2-6.5-2.3-6.8c-1.3-.2-2.4.3-2.8 1.1zm3.6 3.2c0 1.4-.4 2.5-1 2.5-.5 0-1-1.1-1-2.5s.5-2.5 1-2.5c.6 0 1 1.1 1 2.5zM129.6 204.2c-2.8 6.9-2.9 7.8-.7 7.8 1.2 0 2.1.7 2.1 1.5s.6 1.5 1.3 1.5c.9 0 1.3-1.9 1.2-7 0-7.8-1.6-9.4-3.9-3.8zm1.1 5c-.3.8-.6.5-.6-.6-.1-1.1.2-1.7.5-1.3.3.3.4 1.2.1 1.9zM135 202.6c0 1.1.6 1.4 2 .9 1.7-.5 1.8-.3 1.1 2.2-.5 1.5-1.2 4.3-1.5 6-.5 2.7-.2 3.3 1.3 3.3 1.4 0 1.7-.6 1.3-2.8-.2-1.6.3-4.6 1.2-6.6.9-2.1 1.6-4 1.6-4.2 0-.2-1.6-.4-3.5-.4-2.5 0-3.5.4-3.5 1.6zM103.2 204.1c-.5 1.1-.6 4-.3 6.2.6 3.9.9 4.2 3.9 4.5 1.8.2 3.2-.1 3.2-.7s-1-1.1-2.3-1.1c-1.7 0-2.2-.5-2.2-2.3.1-1.3.4-2.8.8-3.4.4-.7.3-1.4-.2-1.8-.6-.3-.8-1.2-.4-2 .3-.8 0-1.5-.6-1.5-.7 0-1.5.9-1.9 2.1zM97.3 205.7c-2 .7-1.5 3.3 1 5.4 1.2 1 1.7 1.8 1 1.9-.6 0-1.3-.6-1.6-1.3-.2-.6-.8-.9-1.2-.5-1.3 1.2.4 3.8 2.5 3.8 3.1 0 3.7-3 1-5.2-1.2-1-2-2.2-1.6-2.5.4-.4 1.1-.1 1.6.7.5.8 1.2 1.1 1.6.7.4-.3.1-1.3-.6-2.2-1.3-1.6-1.7-1.7-3.7-.8z"/></svg>